<?xml version="1.0" encoding="utf-8"?>
<!-- Generator: Adobe Illustrator 17.0.0, SVG Export Plug-In . SVG Version: 6.00 Build 0)  -->
<!DOCTYPE svg PUBLIC "-//W3C//DTD SVG 1.1//EN" "http://www.w3.org/Graphics/SVG/1.1/DTD/svg11.dtd">
<svg version="1.1" id="Capa_1" xmlns="http://www.w3.org/2000/svg" xmlns:xlink="http://www.w3.org/1999/xlink" x="0px" y="0px"
	 width="967px" height="295px" viewBox="-3.5 137.5 967 295" enable-background="new -3.5 137.5 967 295" xml:space="preserve">
<g>
	<text transform="matrix(1 0 0 1 71.9285 -32.0517)" fill="#575757" font-family="'AlfaSlabOne-Regular'" font-size="90.5083">DELA TERRAM</text>
	
		<text transform="matrix(1 0 0 1 71.9285 -32.0517)" fill="none" stroke="#F4E9E9" stroke-miterlimit="10" font-family="'AlfaSlabOne-Regular'" font-size="90.5083">DELA TERRAM</text>
</g>
<path fill="#FFFFFF" d="M5.333,199.39H48.49c5.325,0,10.287,0.674,14.887,2.023c4.598,1.348,8.593,3.614,11.982,6.795
	c3.388,3.182,6.051,7.349,7.988,12.501c1.935,5.153,2.905,11.499,2.905,19.037c0,7.609-0.969,13.971-2.905,19.088
	c-1.937,5.119-4.601,9.269-7.988,12.449c-3.389,3.182-7.384,5.447-11.982,6.795c-4.601,1.349-9.562,2.023-14.887,2.023H5.333
	v-17.014h6.225v-46.684H5.333V199.39z M46.622,263.088c2.35,0,4.114-0.605,5.291-1.816c1.175-1.209,1.764-3.164,1.764-5.861v-31.33
	c0-2.697-0.622-4.65-1.867-5.861c-1.245-1.209-2.975-1.816-5.187-1.816h-6.017v46.684H46.622z"/>
<path fill="#FFFFFF" d="M137.604,216.404h-12.553v16.391h9.129v11.827h-9.129v18.466h12.553v-16.391h23.238v33.405H89.779v-17.014
	h6.225v-46.684h-6.225V199.39h71.064v31.33h-23.238V216.404z"/>
<path fill="#FFFFFF" d="M215.315,199.39h44.817v17.014h-9.544v46.684h9.337v-9.544h20.645v26.558h-65.254v-17.014h6.225v-46.684
	h-6.225V199.39z"/>
<path fill="#FFFFFF" d="M324.554,263.088h6.225l-1.764-8.196H315.01l-1.66,8.196h6.225v17.014h-35.48v-17.014h4.15l17.532-63.698
	h37.762l17.532,63.698h4.15v17.014h-40.667V263.088z M317.293,243.896h9.544l-4.254-20.748h-1.037L317.293,243.896z"/>
<path fill="#FFFFFF" d="M398.625,199.39h78.014v25.21h-17.844v-8.196h-6.639v46.684h7.262v17.014h-43.571v-17.014h7.262v-46.684
	h-6.639v8.196h-17.844V199.39z"/>
<path fill="#FFFFFF" d="M527.368,216.404h-12.552v16.391h9.129v11.827h-9.129v18.466h12.552v-16.391h23.239v33.405h-71.064v-17.014
	h6.225v-46.684h-6.225V199.39h71.064v31.33h-23.239V216.404z"/>
<path fill="#FFFFFF" d="M591.065,263.088h6.847v17.014h-42.119v-17.014h6.225v-46.684h-6.225V199.39h48.655
	c4.218,0,8.04,0.415,11.463,1.245c3.424,0.83,6.311,2.163,8.663,3.994c2.351,1.833,4.166,4.237,5.447,7.21
	c1.278,2.975,1.919,6.606,1.919,10.893c0,4.565-0.917,8.543-2.749,11.931c-1.833,3.389-4.512,5.775-8.04,7.158l0.104,1.037
	c6.64,1.038,9.959,5.119,9.959,12.242v7.988h4.876v17.014h-32.885v-24.38c0-2.075-0.226-3.751-0.675-5.031
	c-0.45-1.279-1.176-2.247-2.178-2.905c-1.003-0.657-2.267-1.105-3.787-1.349c-1.522-0.241-3.355-0.363-5.498-0.363V263.088z
	 M596.667,233.418c2.005,0,3.509-0.519,4.512-1.556c1.002-1.038,1.504-2.731,1.504-5.084v-3.735c0-2.35-0.503-4.046-1.504-5.083
	c-1.003-1.038-2.507-1.556-4.512-1.556h-5.602v17.014H596.667z"/>
<path fill="#FFFFFF" d="M675.51,263.088h6.847v17.014h-42.119v-17.014h6.225v-46.684h-6.225V199.39h48.655
	c4.218,0,8.04,0.415,11.463,1.245c3.424,0.83,6.311,2.163,8.663,3.994c2.351,1.833,4.166,4.237,5.447,7.21
	c1.278,2.975,1.919,6.606,1.919,10.893c0,4.565-0.917,8.543-2.749,11.931c-1.833,3.389-4.512,5.775-8.04,7.158l0.104,1.037
	c6.64,1.038,9.959,5.119,9.959,12.242v7.988h4.876v17.014h-32.885v-24.38c0-2.075-0.226-3.751-0.675-5.031
	c-0.45-1.279-1.176-2.247-2.178-2.905c-1.003-0.657-2.267-1.105-3.787-1.349c-1.522-0.241-3.355-0.363-5.498-0.363V263.088z
	 M681.112,233.418c2.005,0,3.509-0.519,4.512-1.556c1.002-1.038,1.504-2.731,1.504-5.084v-3.735c0-2.35-0.503-4.046-1.504-5.083
	c-1.003-1.038-2.507-1.556-4.512-1.556h-5.602v17.014H681.112z"/>
<path fill="#FFFFFF" d="M764.314,263.088h6.224l-1.763-8.196h-14.005l-1.66,8.196h6.225v17.014h-35.48v-17.014h4.149l17.532-63.698
	h37.763l17.532,63.698h4.149v17.014h-40.666V263.088z M757.051,243.896h9.545l-4.254-20.748h-1.038L757.051,243.896z"/>
<path fill="#FFFFFF" d="M808.091,199.39h49.59l11.826,35.584l11.412-35.584h47.825v17.014h-6.225v46.684h6.225v17.014h-41.497
	v-17.014h6.224V222.11l-20.644,57.992h-11.205l-23.445-58.2v41.186h6.225v17.014h-36.311v-17.014h6.225v-46.684h-6.225V199.39z"/>
<circle fill="#FFFFFF" cx="19.285" cy="158.566" r="16.852"/>
<circle fill="#FFFFFF" cx="65.151" cy="158.566" r="16.852"/>
<circle fill="#FFFFFF" cx="111.915" cy="158.566" r="16.852"/>
<circle fill="#FFFFFF" cx="157.782" cy="158.566" r="16.852"/>
<circle fill="#FFFFFF" cx="436.486" cy="158.566" r="16.852"/>
<circle fill="#FFFFFF" cx="234.254" cy="158.566" r="16.852"/>
<circle fill="#FFFFFF" cx="280.12" cy="158.566" r="16.852"/>
<circle fill="#FFFFFF" cx="326.884" cy="158.566" r="16.852"/>
<circle fill="#FFFFFF" cx="480.46" cy="158.566" r="16.852"/>
<circle fill="#FFFFFF" cx="527.224" cy="158.566" r="16.852"/>
<circle fill="#FFFFFF" cx="573.091" cy="158.566" r="16.852"/>
<circle fill="#FFFFFF" cx="617.156" cy="158.566" r="16.852"/>
<circle fill="#FFFFFF" cx="663.022" cy="158.566" r="16.852"/>
<circle fill="#FFFFFF" cx="709.786" cy="158.566" r="16.852"/>
<circle fill="#FFFFFF" cx="755.653" cy="158.566" r="16.852"/>
<circle fill="#FFFFFF" cx="800.614" cy="158.566" r="16.852"/>
<circle fill="#FFFFFF" cx="846.481" cy="158.566" r="16.852"/>
<circle fill="#FFFFFF" cx="893.245" cy="158.566" r="16.852"/>
<path fill="#FFFFFF" d="M73.282,207.115c0,0,8.796,49.051-20.523,95.107c-14.779,23.205-52.186,59.279-40.066,90.705
	c12.13,31.417,16.45,28.866,16.45,28.866s-9.084-6.698-9.422-29.722c-0.617-42.699,32.503-64.842,53.388-98.26
	C93.993,260.404,87.138,213.739,73.282,207.115z"/>
<path fill="#FFFFFF" d="M889.223,264.167c0,0-0.11,0.015-0.359,0.07c-0.238,0.054-0.596,0.139-1.01,0.331
	c-0.846,0.347,1.284,1.143,0.986,2.488c-0.142,0.686-0.02,1.594,0.08,2.547c0.11,0.951,0.165,1.8,0.478,2.945
	c0.354,1.222-0.719,2.289-0.159,3.184c0.584,0.984-0.324,2.071,0.67,3.16c1.995,2.196,4.497,4.511,7.19,6.955
	c2.701,2.446,5.622,5.026,8.559,7.833c2.948,2.795,5.928,5.802,8.923,8.913c2.99,3.116,6.009,6.324,8.918,9.661
	c2.902,3.341,5.673,6.835,8.122,10.513c2.451,3.672,4.522,7.58,5.972,11.627c0.725,2.022,1.269,4.085,1.601,6.153
	c0.311,1.899,0.588,3.895,0.756,5.787c0.37,3.79,0.441,7.404,0.228,10.728c-0.193,3.323-0.695,6.352-1.366,8.974
	c-0.668,2.625-1.537,4.836-2.42,6.568c-0.873,1.738-1.749,3.002-2.399,3.819c-0.327,0.409-0.594,0.71-0.785,0.907
	c-0.202,0.2-0.307,0.303-0.307,0.303l-0.53-0.551c0,0,0.08-0.096,0.234-0.281c0.156-0.196,0.379-0.5,0.649-0.913
	c0.537-0.826,1.253-2.102,1.923-3.829c1.356-3.438,2.503-8.696,2.344-15.056c-0.057-3.174-0.405-6.609-1.054-10.196
	c-0.309-1.802-0.714-3.571-1.161-5.507c-0.414-1.771-1.018-3.551-1.791-5.304c-1.533-3.516-3.698-6.925-6.167-10.214
	c-2.475-3.29-5.285-6.448-8.246-9.485c-2.958-3.041-6.092-5.942-9.279-8.708c-3.222-2.758-6.393-5.472-9.462-8.099
	c-3.066-2.666-5.953-5.373-8.614-8.095c-2.654-2.733-5.096-5.458-7.119-8.375c-0.998-1.474-1.913-2.974-2.612-4.664
	c-0.182-0.424-0.322-0.839-0.48-1.329c-0.076-0.262-0.152-0.521-0.214-0.781l-0.084-0.528l-0.047-0.25l-0.011-0.144l-0.022-0.286
	l-0.042-0.564c-0.031-0.37-0.033-0.751-0.049-1.114c-0.099-2.908,0.379-5.747,1.803-7.802c0.718-1.009,1.641-1.731,2.515-2.076
	c0.877-0.346,1.634-0.422,2.221-0.403c0.589,0.021,1.016,0.118,1.3,0.191c0.276,0.079,0.433,0.142,0.433,0.142L889.223,264.167z"/>
<path fill="#FFFFFF" d="M937.078,341.482c0,0,0.037,0.209,0.105,0.6c0.096,0.387,0.163,0.95,0.335,1.662
	c0.193,0.711,0.336,1.579,0.614,2.558c0.128,0.49,0.263,1.01,0.407,1.56c0.065,0.252,0.131,0.511,0.199,0.776l0.16,0.429
	l0.163,0.283c0.538,0.873,1.469,1.846,2.471,2.803c1.047,0.96,2.152,1.972,3.294,3.019c2.291,2.137,4.712,4.511,7,7.034
	c2.268,2.527,4.43,5.265,5.69,8.311c0.656,1.506,0.918,3.145,1.096,4.537c0.145,1.479,0.243,2.863,0.168,4.146
	c-0.082,2.565-0.677,4.67-1.334,6.009c-0.642,1.359-1.302,1.958-1.302,1.958l-0.159-0.165c0,0,0.135-0.143,0.35-0.463
	c0.217-0.316,0.491-0.817,0.757-1.486c0.542-1.331,0.976-3.389,0.885-5.86c-0.011-1.236-0.201-2.57-0.429-3.948
	c-0.163-0.685-0.284-1.473-0.475-2.128c-0.173-0.694-0.459-1.38-0.773-2.062c-1.294-2.732-3.479-5.25-5.803-7.581
	c-2.341-2.337-4.934-4.432-7.282-6.541c-1.162-1.069-2.276-2.132-3.266-3.239c-0.998-1.107-1.907-2.194-2.532-3.56
	c-0.077-0.191-0.161-0.395-0.216-0.569l-0.101-0.446c-0.066-0.437-0.073-0.64-0.111-0.959c-0.058-0.58-0.114-1.129-0.166-1.646
	c-0.114-1.029-0.082-1.946-0.098-2.687c0.003-1.501,0.125-2.338,0.125-2.338L937.078,341.482z"/>
<path fill="#FFFFFF" d="M424.878,263.745c-0.013-0.006-0.142,0.025-0.454,0.077c-0.299,0.044-0.75,0.132-1.289,0.295
	c-1.064,0.269-2.538,1.004-3.302,2.136c-0.752,1.15-1.01,2.558-1.183,4.789c-0.079,1.102-0.085,2.378-0.048,3.782
	c0.054,1.427,0.154,2.96,0.284,4.616c0.073,0.792,0.147,1.601,0.223,2.425c0.042,0.454,0.057,1.096,0.107,1.331
	c0.042,0.319,0.069,0.622,0.14,1.036c0.225,1.551,0.563,3.168,1.037,4.856c0.952,3.376,2.391,7.065,4.315,10.94
	c1.92,3.868,4.325,7.877,7.068,11.861c2.752,3.982,5.797,7.973,8.844,12.064c3.039,4.097,6.134,8.264,8.899,12.69
	c2.743,4.43,5.25,9.091,6.866,14.116c0.792,2.511,1.379,5.101,1.561,7.717c0.104,1.315,0.102,2.583,0.012,3.922
	c-0.096,1.113-0.19,2.213-0.283,3.298c-0.067,1.059-0.257,2.228-0.392,3.32c-0.154,1.101-0.267,2.198-0.481,3.231
	c-0.192,1.04-0.381,2.063-0.566,3.066c-0.231,0.994-0.458,1.969-0.68,2.924c-0.974,3.797-2.062,7.215-3.278,10.147
	c-1.19,2.938-2.403,5.417-3.532,7.386c-1.123,1.972-2.1,3.461-2.811,4.45c-0.713,0.986-1.153,1.505-1.153,1.505l-1.192-0.894
	c0,0,0.311-0.5,0.846-1.531c0.531-1.031,1.249-2.584,2.033-4.607c0.791-2.02,1.578-4.542,2.34-7.451
	c0.774-2.907,1.36-6.259,1.793-9.915c0.097-0.915,0.196-1.849,0.297-2.8c0.058-0.955,0.117-1.928,0.177-2.918
	c0.084-0.992,0.059-1.976,0.079-2.98c0-1.015,0.054-1.98-0.009-3.097c-0.039-1.088-0.079-2.191-0.119-3.308
	c-0.054-0.891-0.165-1.885-0.365-2.832c-0.366-1.918-1.015-3.86-1.869-5.793c-1.723-3.871-4.298-7.687-7.223-11.429
	c-2.929-3.75-6.166-7.487-9.518-11.231c-3.347-3.749-6.776-7.538-10.12-11.434c-3.349-3.891-6.675-7.859-9.587-12.158
	c-2.928-4.27-5.381-8.964-6.866-13.942c-1.461-4.949-1.934-10.325-1.213-14.583c0.287-2.137,0.761-4.225,1.361-6.213
	c0.636-2.002,1.453-3.917,2.49-5.688c1.048-1.762,2.349-3.385,3.898-4.652c1.547-1.262,3.321-2.115,4.958-2.439
	c1.645-0.325,3.073-0.195,4.186,0.079c1.121,0.292,1.951,0.713,2.581,1.075c0.625,0.389,1.045,0.747,1.325,0.989
	c0.267,0.253,0.426,0.415,0.413,0.409L424.878,263.745z"/>
<path fill="#FFFFFF" d="M454.24,360.961c0,0,0.249,0.298,0.638,0.898c0.371,0.608,0.875,1.539,1.298,2.821
	c0.414,1.279,0.776,2.914,0.811,4.837c0.023,0.482,0.027,0.981-0.02,1.491c-0.03,0.513-0.077,1.041-0.171,1.575
	c-0.137,1.082-0.401,2.203-0.773,3.34c-0.198,0.561-0.39,1.149-0.642,1.714c-0.13,0.282-0.26,0.566-0.392,0.853l-0.21,0.428
	l-0.106,0.215l-0.053,0.108l-0.027,0.054l-0.013,0.027l-0.079,0.129c-0.32,0.506-0.553,0.95-0.959,1.529
	c-0.421,0.581-0.891,1.224-1.351,1.71c-1.828,2.112-4.142,3.87-6.612,5.282c-4.987,2.808-10.493,4.631-15.802,6.582
	c-2.658,0.962-5.282,1.928-7.772,3.002c-2.475,1.079-4.857,2.246-6.835,3.722c-1.009,0.719-1.889,1.532-2.652,2.397
	c-0.806,0.861-1.32,1.773-1.967,2.874c-0.65,1.059-1.119,2.052-1.644,3.044c-0.467,1.016-0.941,1.994-1.311,2.966
	c-0.782,1.929-1.365,3.756-1.764,5.405c-0.402,1.648-0.678,3.109-0.821,4.322c-0.149,1.213-0.205,2.174-0.213,2.828
	c-0.007,0.654,0.016,0.991,0.016,0.991l-0.568,0.076c0,0-0.266-1.441-0.211-3.965c0.045-2.516,0.464-6.136,1.739-10.296
	c0.296-1.048,0.695-2.107,1.09-3.213c0.45-1.081,0.904-2.274,1.438-3.346c0.491-1.044,1.109-2.391,1.972-3.482
	c0.843-1.12,1.825-2.165,2.914-3.076c2.159-1.875,4.652-3.327,7.191-4.673c2.558-1.305,5.194-2.458,7.802-3.591
	c2.609-1.122,5.186-2.244,7.628-3.451c2.447-1.189,4.733-2.507,6.755-3.915c2.05-1.378,3.757-2.903,5.171-4.425
	c0.391-0.388,0.598-0.745,0.918-1.085c0.306-0.366,0.66-0.932,0.98-1.376l0.322-0.538l0.401-0.621
	c0.265-0.411,0.453-0.845,0.697-1.249c0.253-0.403,0.396-0.832,0.605-1.234c0.217-0.4,0.365-0.811,0.527-1.212
	c0.173-0.398,0.304-0.797,0.419-1.19c0.129-0.391,0.269-0.772,0.356-1.152c0.405-1.512,0.632-2.906,0.731-4.085
	c0.111-1.18,0.1-2.139,0.08-2.798c-0.009-0.668-0.054-1.017-0.054-1.017L454.24,360.961z"/>
</svg>
