<?xml version="1.0" encoding="utf-8"?>
<!-- Generator: Adobe Illustrator 16.0.0, SVG Export Plug-In . SVG Version: 6.00 Build 0)  -->
<!DOCTYPE svg PUBLIC "-//W3C//DTD SVG 1.1//EN" "http://www.w3.org/Graphics/SVG/1.1/DTD/svg11.dtd">
<svg version="1.1" xmlns="http://www.w3.org/2000/svg" xmlns:xlink="http://www.w3.org/1999/xlink" x="0px" y="0px" width="1280px"
	 height="362px" viewBox="0 0 1280 362" enable-background="new 0 0 1280 362" xml:space="preserve">
<g id="Fondo">
	<path fill="#67382E" d="M1280,321c0,0-13.175,23-30.403,23c-26.35,0-18.242-17-29.39-21c-11.148-4-20.27,7-20.27,7
		s-5.067,29-59.793,29c-50.714,0-63.848-35-63.848-35s-1.014,26-42.565,26c-46.618,0-45.604-29-45.604-29s1.623,14-12.162,14
		c-16.215,0-18.242-11-18.242-11s-9.137,15.286-24.322,16c-31.9,1.5-27.9-33-53.713-33c-13.213,0-15.201,23-33.443,23
		s-21.283-17-21.283-17s3.041,15-16.215,17s-18.215-11-18.215-11s-6.107,33-51.713,32s-51.687-41-51.687-41
		S680.78,342.334,622,346.334c-58.78,4-62.562-28.334-62.562-28.334S541,333,515.859,333c-28.859,0-45.605-11-45.605-11
		s-17.417,25-74.17,25c-56.753,0-50.084-36-80.888-28c-28.446,7.388-29.001-7.538-38.511-7C259,313,259,348,213,348
		c-35,0-61.982-41-61.982-41s-21.283,42-83.103,42S-1,306-1,306V183h1281V321z"/>
	<path fill="#67382E" d="M-1,45c0,0,13.175-23,30.403-23c26.35,0,18.242,17,29.39,21c11.148,4,20.27-7,20.27-7S84.13,7,138.855,7
		c50.714,0,63.848,35,63.848,35s1.014-26,42.565-26c46.618,0,45.604,29,45.604,29s-1.623-14,12.162-14c16.215,0,18.242,11,18.242,11
		s9.137-15.286,24.322-16c31.9-1.5,27.9,33,53.713,33c13.213,0,15.201-23,33.443-23s21.283,17,21.283,17s-3.041-15,16.215-17
		s18.215,11,18.215,11s6.107-33,51.713-32s51.687,41,51.687,41S598.22,23.666,657,19.666c58.779-4,62.562,28.334,62.562,28.334
		S738,33,763.141,33c28.859,0,45.605,11,45.605,11s17.417-25,74.17-25C939.67,19,933,55,963.804,47
		c28.446-7.388,29.001,7.538,38.511,7C1020,53,1020,18,1066,18c35,0,61.982,41,61.982,41s21.283-42,83.104-42S1280,60,1280,60v123
		H-1V45z"/>
</g>
<g id="BordeLineas">
	<g>
		<path fill="#82453B" d="M258.897,314.399c-1.662,2.062-3.493,3.96-5.406,5.789c-1.931,1.805-3.938,3.541-6.046,5.16
			c-2.116,1.606-4.303,3.139-6.591,4.529c-2.295,1.377-4.671,2.641-7.131,3.759c-2.46,1.117-5.023,2.032-7.646,2.792
			c-2.622,0.759-5.329,1.308-8.081,1.563c-0.685,0.086-1.375,0.127-2.068,0.157c-0.691,0.036-1.383,0.082-2.078,0.064l-1.042-0.004
			l-0.521-0.003l-0.13-0.001l-0.207-0.012l-0.244-0.017l-1.953-0.126c-2.92-0.286-5.588-0.886-8.244-1.722
			c-2.643-0.83-5.17-1.94-7.574-3.223c-2.418-1.258-4.708-2.714-6.9-4.27c-4.371-3.135-8.342-6.688-12.104-10.383
			c-1.896-1.833-3.736-3.712-5.552-5.604c-1.839-1.869-3.637-3.771-5.445-5.656c-3.62-3.759-7.297-7.468-11.223-10.802l1.209,0.025
			c-2.641,2.174-5.211,4.446-7.715,6.809l-7.541,7.117c-2.54,2.364-5.13,4.701-7.828,6.937c-2.712,2.215-5.518,4.346-8.462,6.289
			c-2.93,1.967-5.985,3.761-9.121,5.412c-3.138,1.646-6.361,3.148-9.668,4.44c-3.307,1.288-6.669,2.449-10.092,3.378
			c-3.423,0.964-6.873,1.681-10.392,2.27c-3.697,0.537-7.295,0.716-10.924,0.554c-3.612-0.16-7.187-0.6-10.689-1.305
			c-3.503-0.698-6.941-1.613-10.309-2.695c-3.365-1.095-6.648-2.385-9.87-3.783c-3.224-1.396-6.362-2.961-9.435-4.624
			c-3.08-1.65-6.079-3.437-9.008-5.317c-2.939-1.866-5.789-3.862-8.577-5.932c-2.78-2.082-5.487-4.247-8.062-6.583l0.374-0.469
			c2.865,1.896,5.815,3.676,8.783,5.394c2.965,1.726,5.983,3.351,9.019,4.919c3.046,1.551,6.124,3.024,9.231,4.407
			c3.111,1.378,6.267,2.633,9.439,3.804c3.177,1.158,6.397,2.169,9.638,3.04c3.237,0.881,6.507,1.594,9.791,2.096
			c3.285,0.487,6.577,0.806,9.854,0.849c3.259,0.029,6.57-0.162,9.685-0.682c3.272-0.571,6.571-1.29,9.8-2.131
			c3.232-0.855,6.447-1.779,9.594-2.907c3.147-1.124,6.242-2.399,9.271-3.828c3.03-1.427,5.98-3.028,8.883-4.731
			c2.889-1.727,5.743-3.538,8.539-5.464c2.814-1.901,5.574-3.913,8.306-5.986c2.727-2.079,5.448-4.193,8.138-6.358
			c2.714-2.139,5.396-4.331,8.17-6.421l0.633-0.477l0.577,0.502c1.997,1.737,3.885,3.563,5.747,5.405l5.611,5.473
			c1.885,1.802,3.795,3.572,5.715,5.324c1.939,1.731,3.914,3.416,5.923,5.045c2.022,1.613,4.066,3.188,6.168,4.66
			c2.096,1.479,4.247,2.859,6.414,4.174c2.182,1.29,4.415,2.453,6.667,3.522c2.26,1.057,4.577,1.938,6.92,2.648
			c2.325,0.714,4.776,1.232,7.042,1.536l1.95,0.172l0.244,0.021l0.061,0.005l0.03,0.003c0.086,0.005-0.083-0.004-0.055-0.003
			l0.114,0.003l0.458,0.013l0.915,0.025c0.61,0.032,1.222,0.005,1.834-0.013c0.612-0.011,1.225-0.031,1.837-0.095
			c2.446-0.195,4.902-0.534,7.326-1.104c2.429-0.553,4.818-1.317,7.187-2.176c2.37-0.858,4.7-1.868,6.98-3.002
			c2.288-1.12,4.543-2.337,6.737-3.673c2.202-1.324,4.37-2.725,6.483-4.219c2.113-1.49,4.209-3.04,6.204-4.703L258.897,314.399z"/>
	</g>
	<g>
		<path fill="#82453B" d="M825.2,309.325c-0.135,1.09-0.395,2.135-0.725,3.176c-0.329,1.038-0.765,2.047-1.281,3.021
			c-1.024,1.954-2.438,3.752-4.195,5.209c-1.748,1.464-3.839,2.561-6.046,3.198c-1.118,0.328-2.191,0.567-3.398,0.692
			c-0.521,0.057-1.029,0.122-1.688,0.113c-0.632,0.025-1.234-0.013-1.827-0.072c-0.6-0.031-1.19-0.195-1.788-0.296
			c-0.582-0.174-1.186-0.302-1.749-0.545c-1.159-0.408-2.228-1.036-3.236-1.721c-1.996-1.417-3.597-3.253-4.843-5.224
			c-1.229-1.984-2.162-4.087-2.88-6.231c-0.361-1.072-0.671-2.157-0.931-3.254c-0.26-1.12-0.476-2.158-0.634-3.411l4.907,0.616
			c-0.902,2.741-1.857,5.723-3.049,8.573c-1.191,2.863-2.567,5.692-4.28,8.335c-1.69,2.651-3.645,5.164-5.891,7.388
			c-2.242,2.226-4.689,4.249-7.352,5.92c-2.643,1.7-5.461,3.084-8.357,4.188c-2.898,1.097-5.853,2.001-8.855,2.596
			c-2.998,0.605-6.006,1.093-9.029,1.313c-1.508,0.153-3.016,0.238-4.524,0.311l-1.146,0.055l-1.117,0.02
			c-0.751-0.001-1.543-0.003-2.299-0.043c-6.093-0.222-12.125-1.639-17.672-4.137c-2.759-1.274-5.433-2.74-7.95-4.444
			c-2.512-1.709-4.915-3.583-7.169-5.623c-4.507-4.084-8.504-8.729-11.938-13.774c-1.718-2.524-3.299-5.146-4.718-7.878
			c-1.409-2.751-2.659-5.551-3.545-8.729l4.608,0.422c-1.205,2.932-2.802,5.586-4.546,8.112c-1.743,2.53-3.714,4.875-5.809,7.092
			c-4.192,4.432-8.947,8.3-14.073,11.562c-5.107,3.293-10.588,5.994-16.273,8.074c-2.837,1.062-5.736,1.929-8.651,2.713
			c-2.932,0.714-5.871,1.403-8.847,1.853c-1.482,0.26-2.972,0.457-4.463,0.64c-1.487,0.213-2.984,0.323-4.477,0.457
			c-1.493,0.142-2.991,0.181-4.484,0.274c-1.606,0.065-2.94,0.081-4.479,0.084c-3.092-0.011-6.083-0.215-9.095-0.585
			c-3.001-0.402-5.984-0.95-8.915-1.716c-5.851-1.561-11.486-3.963-16.534-7.247c-2.517-1.65-4.883-3.516-7.044-5.582
			c-2.15-2.079-4.113-4.334-5.662-6.906l0.502-0.328c1.855,2.192,4.061,4.114,6.36,5.822c2.293,1.729,4.757,3.206,7.283,4.521
			c2.535,1.305,5.176,2.374,7.861,3.276c2.688,0.897,5.431,1.617,8.217,2.108c2.78,0.514,5.588,0.856,8.408,1.046
			c2.817,0.145,5.678,0.171,8.437,0.07c1.385-0.064,2.977-0.164,4.29-0.281c1.421-0.154,2.848-0.254,4.261-0.453
			c2.83-0.365,5.655-0.751,8.44-1.32c2.794-0.527,5.554-1.187,8.292-1.914c2.716-0.794,5.438-1.576,8.076-2.587
			c1.335-0.463,2.633-1.015,3.947-1.527c1.289-0.568,2.593-1.108,3.855-1.73c2.557-1.183,5.047-2.506,7.448-3.971
			c4.812-2.91,9.327-6.323,13.311-10.27c1.994-1.968,3.852-4.069,5.534-6.283c1.689-2.208,3.172-4.564,4.362-6.976l3.162-6.401
			l1.446,6.822c0.554,2.613,1.605,5.349,2.728,7.987c1.146,2.649,2.469,5.244,3.932,7.761c2.938,5.024,6.418,9.78,10.538,13.932
			c4.099,4.16,8.864,7.709,14.158,10.188c2.652,1.214,5.406,2.233,8.257,2.862c2.842,0.663,5.759,0.981,8.672,0.994
			c0.733,0.004,1.433-0.027,2.172-0.06l1.115-0.071l1.082-0.108c1.464-0.155,2.929-0.285,4.374-0.548
			c2.9-0.454,5.757-1.112,8.536-1.961c2.789-0.825,5.469-1.935,8.045-3.185c2.564-1.275,5.022-2.728,7.283-4.423
			c2.25-1.705,4.375-3.552,6.265-5.625c1.89-2.07,3.588-4.307,5.104-6.678c1.506-2.376,2.853-4.872,3.992-7.495
			c1.167-2.627,2.079-5.314,3.119-8.207l3.964-11.017l0.943,11.633c0.068,0.845,0.226,1.888,0.406,2.831
			c0.186,0.965,0.415,1.924,0.688,2.863c0.54,1.883,1.261,3.693,2.186,5.341c0.478,0.811,0.973,1.603,1.545,2.32
			c0.58,0.703,1.199,1.37,1.895,1.927c0.702,0.54,1.434,1.054,2.251,1.396c0.392,0.21,0.827,0.317,1.242,0.483
			c0.438,0.093,0.86,0.259,1.316,0.305c0.453,0.085,0.9,0.156,1.325,0.175c0.396,0.059,0.941,0.044,1.474,0.031
			c0.897-0.008,1.915-0.121,2.843-0.305c0.95-0.171,1.87-0.457,2.766-0.809c0.897-0.347,1.771-0.776,2.586-1.311
			c1.634-1.062,3.074-2.471,4.274-4.1c0.604-0.814,1.119-1.697,1.604-2.604c0.472-0.91,0.894-1.873,1.188-2.85L825.2,309.325z"/>
	</g>
	<g>
		<path fill="#82453B" d="M828.666,309.023c0,0.001,0.247,0.569,0.847,1.571c0.59,1,1.507,2.444,2.895,4.053
			c1.385,1.603,3.285,3.355,5.792,4.672c2.508,1.297,5.633,2.077,9.105,1.821c1.726-0.07,3.328-0.433,4.865-1.313
			c1.557-0.84,3.055-2.088,4.535-3.521c2.966-2.872,5.94-6.425,9.562-9.632c1.812-1.598,3.789-3.106,5.981-4.327
			c2.193-1.208,4.604-2.116,7.123-2.531c2.517-0.443,5.105-0.39,7.646-0.052c2.562,0.39,5.113,1.123,7.437,2.376
			c4.697,2.454,8.413,6.303,11.645,10.053c3.243,3.773,6.271,7.483,9.697,10.363c1.714,1.428,3.446,2.728,5.284,3.749
			c1.838,1.008,3.712,1.847,5.632,2.431c3.835,1.136,7.764,1.531,11.277,1.243c3.523-0.285,6.672-1.286,9.273-2.592
			c2.611-1.306,4.667-2.904,6.261-4.336c1.586-1.447,2.677-2.768,3.386-3.688c0.718-0.919,1.035-1.45,1.035-1.45l0.361,0.174
			c0,0-0.223,0.607-0.771,1.675c-0.554,1.064-1.475,2.573-2.891,4.342c-1.413,1.765-3.413,3.732-6.115,5.486
			c-2.692,1.753-6.15,3.204-10.12,3.83c-0.497,0.064-0.999,0.129-1.507,0.194c-0.509,0.036-1.023,0.071-1.543,0.108
			c-1.044,0.039-2.193,0.047-3.164-0.012c-2.168-0.077-4.373-0.409-6.614-1.006c-4.493-1.143-8.923-3.656-12.545-7.037
			c-3.649-3.374-6.655-7.37-9.652-11.255c-1.503-1.943-2.991-3.881-4.604-5.689c-1.604-1.812-3.354-3.492-5.364-4.812
			c-1.998-1.312-4.246-2.329-6.618-2.776c-2.391-0.488-4.856-0.521-7.218-0.125c-1.177,0.222-2.325,0.555-3.428,0.986
			c-1.104,0.436-2.135,1.02-3.122,1.648c-1.966,1.282-3.667,2.895-5.198,4.608c-3.075,3.433-5.524,7.255-8.642,10.521
			c-1.561,1.621-3.296,3.131-5.33,4.21c-1.018,0.529-2.1,0.948-3.209,1.203c-0.269,0.067-0.564,0.122-0.865,0.171
			c-0.322,0.06-0.504,0.065-0.761,0.101c-0.531,0.032-1.058,0.065-1.578,0.097c-4.078,0.11-7.874-1.069-10.616-2.905
			c-2.79-1.8-4.594-4.062-5.811-5.979c-1.215-1.94-1.859-3.604-2.246-4.743c-0.37-1.146-0.487-1.782-0.487-1.782L828.666,309.023z"
			/>
	</g>
	<g>
		<path fill="#82453B" d="M560.498,309.251c-3.158,2.423-6.658,4.331-10.276,5.981c-1.807,0.834-3.66,1.569-5.54,2.233
			c-1.881,0.658-3.778,1.298-5.714,1.795c-3.865,1.01-7.804,1.82-11.795,2.236c-1.993,0.228-3.996,0.38-6.002,0.472l-1.506,0.059
			c-0.148,0.003-0.2,0.013-0.427,0.011l-0.366-0.003l-0.732-0.008l-2.931-0.029c-1.94-0.001-4.001-0.173-5.997-0.254
			c-1.997-0.151-3.977-0.317-5.96-0.536c-1.972-0.287-3.958-0.485-5.913-0.877l-2.939-0.537l-2.915-0.658
			c-0.974-0.208-1.937-0.466-2.9-0.714c-0.961-0.258-1.934-0.472-2.882-0.778c-1.911-0.561-3.804-1.175-5.688-1.815
			c-1.879-0.655-3.737-1.373-5.58-2.129c-1.851-0.771-3.641-1.558-5.494-2.494l2.181-0.656c-0.762,1.08-1.487,1.859-2.284,2.708
			c-0.784,0.826-1.602,1.599-2.433,2.354c-1.67,1.502-3.449,2.849-5.254,4.135c-3.636,2.545-7.496,4.701-11.46,6.602
			c-3.958,1.926-8.072,3.487-12.234,4.894c-4.176,1.366-8.418,2.534-12.713,3.505c-4.294,0.979-8.644,1.694-13.014,2.288
			c-4.373,0.558-8.774,0.933-13.18,1.091c-4.386,0.176-8.901,0.101-13.346-0.315c-4.461-0.413-8.935-1.149-13.331-2.364
			c-4.39-1.219-8.7-2.939-12.728-5.213c-4.024-2.277-7.706-5.141-10.987-8.235c-3.292-3.083-6.206-6.39-9.188-9.162
			c-2.994-2.775-6.115-4.82-9.79-5.456c-1.832-0.331-3.767-0.34-5.747-0.159c-0.989,0.089-1.987,0.239-2.988,0.429l-3.153,0.658
			c-1.057,0.227-2.208,0.422-3.303,0.623c-1.107,0.172-2.209,0.346-3.328,0.461c-2.227,0.262-4.477,0.424-6.745,0.413
			c-4.511-0.003-9.185-0.754-13.311-2.693c-4.166-1.809-7.396-4.94-11.754-4.978l-0.034-0.6c1.108-0.146,2.258-0.131,3.384,0.057
			c1.13,0.18,2.214,0.547,3.257,0.939c2.086,0.802,4.021,1.726,6.02,2.351c1.991,0.644,4.021,1.036,6.076,1.227
			c2.059,0.18,4.14,0.113,6.218-0.049c4.155-0.345,8.317-1.292,12.38-2.392l3.183-0.891c1.119-0.292,2.259-0.545,3.427-0.731
			c2.33-0.39,4.781-0.478,7.255-0.17c2.467,0.33,4.939,1.095,7.134,2.257c2.212,1.14,4.15,2.603,5.896,4.11
			c3.502,3.03,6.393,6.23,9.493,9.046c3.067,2.843,6.286,5.366,9.801,7.437c3.491,2.103,7.271,3.744,11.226,4.964
			c3.95,1.236,8.063,2.081,12.244,2.618c2.089,0.277,4.2,0.449,6.315,0.614c1.059,0.054,2.073,0.135,3.171,0.164l1.63,0.056
			l1.584,0.028c2.145,0.049,4.292,0.097,6.437,0.052c2.149,0.02,4.292-0.069,6.44-0.132c4.287-0.211,8.58-0.539,12.839-1.148
			c4.253-0.626,8.485-1.471,12.619-2.669c4.146-1.157,8.176-2.715,12.058-4.555c3.884-1.842,7.537-4.148,10.876-6.798
			c1.682-1.311,3.235-2.773,4.684-4.303c0.711-0.775,1.423-1.55,2.055-2.375c0.62-0.799,1.277-1.707,1.693-2.454l0.691-1.242
			l1.49,0.585c1.708,0.671,3.566,1.296,5.385,1.864l2.761,0.818l2.779,0.757c1.86,0.481,3.724,0.938,5.602,1.34
			c1.874,0.408,3.746,0.828,5.633,1.166c1.885,0.348,3.772,0.673,5.666,0.964c1.888,0.325,3.791,0.539,5.686,0.81
			c1.899,0.221,3.809,0.442,5.705,0.621l2.833,0.204c0.941,0.073,1.886,0.144,2.875,0.159l2.929,0.092l1.404,0.041l1.425,0.021
			c1.9,0.015,3.802-0.027,5.702-0.144c1.901-0.1,3.795-0.296,5.693-0.484c1.896-0.206,3.786-0.49,5.668-0.822
			c1.881-0.34,3.764-0.703,5.63-1.151c1.866-0.448,3.72-0.955,5.568-1.501c1.845-0.557,3.671-1.185,5.487-1.855
			c1.801-0.696,3.62-1.412,5.347-2.279L560.498,309.251z"/>
	</g>
	<g>
		<path fill="#82453B" d="M1280.187,307.406c-1.792,4.976-4.249,9.699-7.253,14.108c-1.51,2.201-3.226,4.277-5.162,6.17
			c-1.938,1.885-4.117,3.587-6.591,4.866c-2.461,1.284-5.243,2.113-8.098,2.234c-2.716,0.098-5.483-0.064-8.21-0.613
			c-2.726-0.556-5.459-1.56-7.861-3.169c-2.417-1.591-4.382-3.761-5.995-5.963c-1.626-2.2-2.972-4.458-4.534-6.247
			c-1.555-1.806-3.332-3.013-5.488-3.52c-2.174-0.513-4.54-0.392-7.056,0.01c-2.377,0.378-4.773,1.052-6.947,2.059
			c-4.424,1.954-8.027,5.41-11.382,9.32c-3.396,3.877-6.767,8.116-10.876,11.729c-4.075,3.641-8.843,6.565-13.91,8.567
			c-5.07,2.019-10.399,3.138-15.71,3.775c-5.326,0.625-10.644,0.764-15.97,0.505c-2.602-0.081-5.304-0.348-7.949-0.665
			c-1.316-0.201-2.636-0.372-3.946-0.595l-3.911-0.79c-5.187-1.188-10.234-2.942-15.036-5.199c-4.784-2.29-9.362-5.035-13.489-8.372
			c-4.157-3.292-7.918-7.082-11.227-11.239c-3.282-4.196-6.224-8.612-8.348-13.672l2.181-0.303
			c-0.178,2.429-0.653,4.656-1.312,6.905c-0.666,2.23-1.527,4.407-2.593,6.491c-1.063,2.084-2.331,4.074-3.784,5.928
			c-1.446,1.859-3.117,3.55-4.936,5.054c-1.808,1.515-3.759,2.872-5.844,3.967c-2.057,1.154-4.238,2.039-6.438,2.835
			c-2.224,0.726-4.484,1.323-6.771,1.728c-1.143,0.202-2.284,0.419-3.437,0.527c-1.148,0.136-2.297,0.285-3.449,0.331
			c-2.309,0.18-4.589,0.193-6.914,0.142c-2.22-0.074-4.547-0.214-6.833-0.462c-2.279-0.246-4.557-0.564-6.805-1.065
			c-1.13-0.208-2.24-0.538-3.358-0.804c-1.104-0.341-2.219-0.631-3.303-1.037c-2.187-0.743-4.311-1.69-6.333-2.824
			c-2.024-1.126-3.947-2.455-5.659-4.022c-1.719-1.556-3.223-3.351-4.433-5.313c-1.207-1.967-2.103-4.125-2.414-6.423l0.396-0.053
			c0.538,2.127,1.641,4.105,2.918,5.873c1.307,1.762,2.862,3.326,4.598,4.647c1.74,1.317,3.616,2.442,5.582,3.388
			c1.962,0.954,4.028,1.688,6.127,2.305c1.04,0.337,2.118,0.562,3.177,0.836c1.081,0.202,2.144,0.467,3.235,0.614l1.628,0.255
			l1.64,0.198c1.089,0.152,2.189,0.23,3.288,0.322c2.19,0.17,4.359,0.235,6.636,0.242c2.171-0.031,4.393-0.049,6.566-0.252
			c1.096-0.056,2.177-0.212,3.259-0.354c1.088-0.114,2.153-0.334,3.223-0.535c2.14-0.397,4.222-1.004,6.274-1.666
			c2.028-0.725,4.035-1.521,5.907-2.562c1.896-0.999,3.687-2.18,5.362-3.502c1.691-1.309,3.215-2.821,4.611-4.444
			c1.401-1.619,2.65-3.381,3.724-5.254c1.074-1.871,1.973-3.853,2.694-5.899c0.71-2.03,1.271-4.208,1.527-6.258l0.598-4.804
			l1.583,4.501c0.822,2.336,1.979,4.714,3.222,6.963c1.256,2.262,2.649,4.459,4.209,6.534c1.56,2.074,3.209,4.092,5.022,5.957
			c1.829,1.846,3.717,3.644,5.762,5.254c0.993,0.842,2.071,1.575,3.116,2.349c1.095,0.702,2.142,1.479,3.275,2.119l1.676,1
			c0.562,0.324,1.146,0.614,1.718,0.924c1.138,0.631,2.328,1.157,3.511,1.696c4.741,2.139,9.756,3.636,14.855,4.588l3.842,0.617
			c1.286,0.166,2.579,0.282,3.867,0.424c2.581,0.187,5.122,0.327,7.775,0.289c2.573,0.04,5.192-0.119,7.771-0.299
			c2.584-0.187,5.158-0.439,7.706-0.827c5.096-0.756,10.076-2.062,14.753-3.988c4.67-1.95,8.94-4.683,12.644-8.11
			c3.739-3.406,6.87-7.486,10.315-11.568c1.747-2.021,3.604-4.038,5.726-5.857c2.114-1.819,4.51-3.413,7.104-4.586
			c2.614-1.165,5.336-1.882,8.149-2.286c2.658-0.376,5.648-0.564,8.602,0.183c1.473,0.381,2.934,1.004,4.209,1.879
			c1.282,0.865,2.367,1.94,3.28,3.05c1.831,2.232,3.112,4.557,4.564,6.611c1.431,2.065,3.029,3.869,4.964,5.248
			c1.924,1.39,4.18,2.326,6.574,2.905c2.408,0.582,4.917,0.794,7.449,0.838c2.404,0.026,4.817-0.542,7.068-1.566
			c4.538-2.057,8.317-5.745,11.548-9.751c3.233-4.045,5.94-8.564,8.18-13.287L1280.187,307.406z"/>
	</g>
	<g>
		<path fill="#82453B" d="M985.902,318.334c0,0,0.198,0.543,0.333,1.549c0.126,1,0.22,2.484-0.217,4.261
			c-0.108,0.442-0.281,0.893-0.436,1.372c-0.226,0.449-0.438,0.936-0.743,1.39c-0.329,0.436-0.615,0.94-1.056,1.331
			c-0.207,0.209-0.419,0.419-0.64,0.624c-0.227,0.196-0.489,0.348-0.739,0.525c-0.257,0.164-0.506,0.359-0.781,0.497
			c-0.281,0.124-0.564,0.248-0.85,0.372c-0.569,0.285-1.169,0.422-1.778,0.558c-0.304,0.063-0.61,0.159-0.916,0.194l-0.918,0.076
			l-0.924,0.065l-0.115,0.008l-0.058,0.004l-0.12-0.003l-0.209-0.008l-0.42-0.015l-1.679-0.087
			c-0.609-0.078-1.214-0.179-1.812-0.272c-0.606-0.069-1.156-0.278-1.723-0.421c-0.564-0.136-1.105-0.352-1.631-0.576
			c-0.262-0.11-0.521-0.22-0.779-0.327c-0.249-0.133-0.493-0.27-0.731-0.408c-0.238-0.138-0.474-0.273-0.705-0.408
			c-0.219-0.158-0.435-0.315-0.648-0.47c-0.21-0.156-0.417-0.31-0.621-0.461c-0.188-0.173-0.378-0.338-0.553-0.512
			c-0.365-0.33-0.675-0.691-0.96-1.046c-0.591-0.688-1.004-1.415-1.321-2.063c-0.324-0.647-0.509-1.252-0.642-1.743
			c-0.253-0.994-0.22-1.577-0.22-1.577s0.062,0.131,0.182,0.366s0.325,0.565,0.585,0.971c0.271,0.4,0.625,0.863,1.055,1.354
			c0.441,0.483,0.963,0.995,1.58,1.477c0.306,0.245,0.627,0.488,0.995,0.695c0.181,0.106,0.353,0.228,0.531,0.345
			c0.191,0.099,0.386,0.198,0.582,0.3c0.195,0.101,0.394,0.202,0.594,0.306c0.213,0.08,0.428,0.161,0.646,0.244
			c0.217,0.08,0.433,0.166,0.648,0.258c0.228,0.065,0.458,0.132,0.69,0.199c0.905,0.302,1.923,0.464,2.904,0.625
			c0.495,0.055,0.992,0.104,1.49,0.176l1.675,0.062l0.419,0.021l0.21,0.011l0.026,0.001l0.013,0.001
			c0.064,0.002-0.071-0.001-0.054-0.001l0.047-0.003l0.095-0.007l0.749-0.044l0.749-0.032c0.247-0.015,0.475-0.084,0.712-0.12
			c0.473-0.088,0.951-0.149,1.368-0.328l0.65-0.217c0.207-0.084,0.392-0.203,0.59-0.3c0.19-0.106,0.4-0.188,0.577-0.311
			c0.167-0.135,0.341-0.261,0.515-0.385c0.375-0.222,0.626-0.569,0.935-0.853c0.292-0.3,0.493-0.665,0.759-0.976
			c0.199-0.354,0.426-0.687,0.597-1.036c0.684-1.402,1.034-2.747,1.236-3.698C985.84,318.908,985.902,318.334,985.902,318.334z"/>
	</g>
	<g>
		<path fill="#82453B" d="M1020.102,51.601c1.662-2.062,3.494-3.96,5.406-5.789c1.931-1.805,3.938-3.541,6.047-5.16
			c2.115-1.606,4.303-3.138,6.591-4.53c2.294-1.376,4.671-2.64,7.131-3.758c2.46-1.118,5.022-2.033,7.646-2.792
			c2.621-0.759,5.329-1.309,8.08-1.564c0.686-0.085,1.376-0.127,2.068-0.157c0.691-0.036,1.383-0.082,2.077-0.064l1.042,0.004
			l0.521,0.002l0.13,0l0.208,0.013l0.244,0.016l1.953,0.126c2.92,0.286,5.588,0.886,8.243,1.722c2.643,0.83,5.171,1.939,7.574,3.222
			c2.419,1.258,4.708,2.714,6.9,4.27c4.371,3.134,8.342,6.688,12.104,10.382c1.896,1.834,3.735,3.713,5.552,5.604
			c1.839,1.868,3.637,3.771,5.444,5.656c3.62,3.759,7.298,7.468,11.224,10.802l-1.21-0.025c2.642-2.174,5.212-4.446,7.716-6.809
			l7.541-7.117c2.54-2.364,5.13-4.701,7.828-6.937c2.712-2.215,5.518-4.346,8.462-6.289c2.93-1.967,5.986-3.761,9.121-5.412
			c3.138-1.646,6.361-3.148,9.668-4.441c3.307-1.288,6.669-2.448,10.092-3.378c3.423-0.963,6.873-1.681,10.393-2.27
			c3.697-0.537,7.294-0.715,10.923-0.553c3.612,0.16,7.188,0.6,10.689,1.305c3.503,0.698,6.94,1.614,10.31,2.695
			c3.364,1.095,6.648,2.385,9.87,3.783c3.224,1.396,6.361,2.96,9.435,4.624c3.08,1.651,6.079,3.437,9.009,5.318
			c2.938,1.866,5.789,3.862,8.576,5.932c2.78,2.082,5.487,4.247,8.063,6.583l-0.375,0.469c-2.864-1.896-5.814-3.676-8.782-5.394
			c-2.966-1.726-5.983-3.351-9.019-4.919c-3.046-1.551-6.124-3.024-9.231-4.407c-3.111-1.378-6.267-2.633-9.438-3.803
			c-3.178-1.159-6.397-2.169-9.638-3.041c-3.237-0.881-6.508-1.593-9.791-2.095c-3.285-0.488-6.577-0.806-9.854-0.849
			c-3.259-0.03-6.57,0.162-9.685,0.682c-3.272,0.571-6.571,1.29-9.801,2.13c-3.231,0.855-6.446,1.779-9.594,2.907
			c-3.147,1.125-6.242,2.4-9.271,3.828c-3.031,1.427-5.981,3.028-8.884,4.731c-2.889,1.727-5.743,3.538-8.539,5.464
			c-2.814,1.901-5.575,3.913-8.307,5.986c-2.727,2.079-5.448,4.193-8.138,6.358c-2.715,2.139-5.396,4.331-8.17,6.421l-0.634,0.477
			l-0.576-0.502c-1.997-1.738-3.886-3.563-5.747-5.405l-5.611-5.473c-1.885-1.802-3.795-3.573-5.714-5.324
			c-1.939-1.732-3.914-3.416-5.923-5.045c-2.022-1.613-4.066-3.188-6.168-4.66c-2.097-1.479-4.247-2.859-6.414-4.174
			c-2.182-1.29-4.415-2.454-6.667-3.522c-2.26-1.057-4.576-1.939-6.92-2.648c-2.325-0.714-4.775-1.232-7.042-1.537l-1.95-0.171
			l-0.243-0.021l-0.062-0.005l-0.03-0.002c-0.086-0.005,0.082,0.004,0.055,0.003l-0.114-0.003l-0.457-0.012l-0.915-0.026
			c-0.61-0.033-1.223-0.004-1.835,0.013c-0.612,0.011-1.225,0.031-1.836,0.095c-2.446,0.196-4.902,0.534-7.327,1.104
			c-2.428,0.553-4.817,1.317-7.187,2.176c-2.37,0.858-4.7,1.868-6.979,3.001c-2.288,1.12-4.544,2.337-6.737,3.673
			c-2.202,1.324-4.37,2.725-6.483,4.219c-2.113,1.49-4.209,3.04-6.203,4.703L1020.102,51.601z"/>
	</g>
	<g>
		<path fill="#82453B" d="M453.8,56.675c0.135-1.09,0.395-2.135,0.725-3.176c0.329-1.038,0.765-2.047,1.281-3.021
			c1.024-1.954,2.439-3.752,4.195-5.209c1.748-1.464,3.839-2.561,6.046-3.198c1.118-0.328,2.191-0.567,3.399-0.692
			c0.521-0.057,1.028-0.122,1.688-0.113c0.632-0.025,1.234,0.013,1.827,0.072c0.6,0.031,1.191,0.195,1.789,0.296
			c0.582,0.174,1.186,0.302,1.749,0.545c1.16,0.408,2.229,1.036,3.237,1.721c1.996,1.417,3.597,3.253,4.843,5.224
			c1.23,1.984,2.163,4.087,2.88,6.231c0.361,1.072,0.67,2.157,0.93,3.254c0.26,1.12,0.475,2.158,0.633,3.411l-4.906-0.616
			c0.902-2.741,1.857-5.723,3.048-8.573c1.191-2.863,2.567-5.692,4.281-8.335c1.69-2.651,3.644-5.164,5.891-7.388
			c2.241-2.225,4.689-4.248,7.351-5.919c2.643-1.7,5.461-3.084,8.358-4.188c2.898-1.096,5.853-2,8.855-2.596
			c2.998-0.605,6.005-1.092,9.029-1.313c1.507-0.153,3.016-0.238,4.524-0.31l1.147-0.055l1.118-0.02
			c0.751,0,1.543,0.002,2.298,0.042c6.093,0.222,12.125,1.639,17.672,4.137c2.759,1.275,5.433,2.741,7.951,4.444
			c2.512,1.709,4.915,3.583,7.168,5.624c4.507,4.083,8.504,8.728,11.939,13.774c1.717,2.524,3.299,5.146,4.718,7.878
			c1.409,2.751,2.659,5.551,3.544,8.729l-4.608-0.422c1.205-2.932,2.802-5.586,4.545-8.112c1.743-2.53,3.714-4.875,5.809-7.092
			c4.193-4.432,8.947-8.3,14.073-11.562c5.108-3.293,10.588-5.994,16.274-8.074c2.837-1.062,5.736-1.929,8.652-2.714
			c2.932-0.713,5.871-1.403,8.846-1.852c1.483-0.259,2.973-0.457,4.464-0.639c1.487-0.213,2.983-0.323,4.478-0.458
			c1.492-0.141,2.99-0.181,4.484-0.274c1.605-0.065,2.939-0.082,4.479-0.084c3.092,0.011,6.084,0.215,9.095,0.584
			c3.002,0.403,5.984,0.951,8.915,1.717c5.851,1.56,11.485,3.962,16.533,7.246c2.517,1.65,4.884,3.516,7.045,5.583
			c2.149,2.079,4.113,4.334,5.661,6.906l-0.502,0.328c-1.854-2.192-4.061-4.114-6.36-5.822c-2.294-1.729-4.757-3.206-7.283-4.521
			c-2.534-1.305-5.176-2.375-7.861-3.276c-2.688-0.897-5.431-1.617-8.216-2.108c-2.78-0.513-5.589-0.857-8.408-1.046
			c-2.817-0.145-5.679-0.171-8.438-0.07c-1.385,0.064-2.977,0.164-4.289,0.28c-1.422,0.155-2.849,0.254-4.262,0.454
			c-2.83,0.365-5.655,0.751-8.44,1.321c-2.795,0.527-5.555,1.187-8.292,1.914c-2.716,0.794-5.438,1.577-8.076,2.587
			c-1.335,0.463-2.632,1.015-3.947,1.527c-1.289,0.569-2.592,1.109-3.856,1.731c-2.557,1.183-5.047,2.506-7.448,3.971
			c-4.811,2.91-9.327,6.323-13.31,10.27c-1.995,1.968-3.852,4.069-5.535,6.283c-1.69,2.208-3.171,4.564-4.363,6.976l-3.162,6.401
			l-1.446-6.822c-0.553-2.613-1.605-5.349-2.728-7.987c-1.146-2.649-2.468-5.244-3.932-7.761c-2.938-5.024-6.418-9.78-10.539-13.931
			c-4.098-4.161-8.864-7.709-14.157-10.188c-2.653-1.214-5.407-2.233-8.258-2.863c-2.841-0.663-5.758-0.982-8.671-0.994
			c-0.734-0.004-1.434,0.027-2.172,0.06l-1.116,0.071l-1.083,0.109c-1.463,0.154-2.928,0.285-4.374,0.547
			c-2.9,0.454-5.756,1.113-8.536,1.961c-2.789,0.826-5.469,1.934-8.044,3.184c-2.565,1.276-5.023,2.728-7.283,4.423
			c-2.25,1.706-4.376,3.552-6.265,5.625c-1.891,2.07-3.589,4.307-5.104,6.678c-1.506,2.376-2.853,4.872-3.992,7.495
			c-1.167,2.627-2.079,5.314-3.12,8.207l-3.964,11.017l-0.942-11.633c-0.068-0.845-0.227-1.888-0.407-2.831
			c-0.186-0.965-0.415-1.924-0.687-2.863c-0.54-1.883-1.261-3.693-2.186-5.341c-0.478-0.811-0.972-1.603-1.544-2.32
			c-0.581-0.703-1.199-1.37-1.895-1.927c-0.702-0.54-1.434-1.054-2.251-1.396c-0.392-0.21-0.827-0.317-1.242-0.483
			c-0.438-0.093-0.86-0.259-1.316-0.305c-0.453-0.085-0.9-0.156-1.325-0.175c-0.396-0.059-0.941-0.044-1.474-0.031
			c-0.898,0.008-1.915,0.121-2.842,0.305c-0.95,0.171-1.87,0.457-2.766,0.809c-0.897,0.347-1.771,0.776-2.585,1.311
			c-1.634,1.062-3.074,2.471-4.275,4.1c-0.604,0.814-1.119,1.697-1.604,2.604c-0.473,0.91-0.894,1.873-1.189,2.85L453.8,56.675z"/>
	</g>
	<g>
		<path fill="#82453B" d="M450.334,56.977c0-0.001-0.248-0.569-0.847-1.571c-0.589-1-1.506-2.444-2.894-4.053
			c-1.384-1.603-3.285-3.355-5.792-4.672c-2.508-1.297-5.632-2.077-9.105-1.821c-1.726,0.07-3.328,0.433-4.865,1.313
			c-1.557,0.84-3.056,2.088-4.536,3.521c-2.966,2.872-5.94,6.425-9.561,9.632c-1.812,1.598-3.79,3.106-5.982,4.327
			c-2.193,1.208-4.604,2.116-7.122,2.531c-2.517,0.443-5.106,0.39-7.647,0.052c-2.561-0.39-5.112-1.123-7.436-2.376
			c-4.698-2.454-8.414-6.303-11.645-10.053c-3.244-3.773-6.271-7.483-9.697-10.363c-1.714-1.428-3.447-2.728-5.284-3.749
			c-1.838-1.008-3.712-1.847-5.632-2.431c-3.835-1.136-7.764-1.531-11.278-1.244c-3.523,0.286-6.672,1.287-9.273,2.593
			c-2.612,1.305-4.667,2.904-6.261,4.335c-1.586,1.447-2.677,2.768-3.386,3.688c-0.718,0.919-1.036,1.45-1.036,1.45l-0.36-0.174
			c0,0,0.222-0.607,0.771-1.675c0.555-1.064,1.475-2.573,2.891-4.342c1.413-1.765,3.413-3.732,6.115-5.486
			c2.693-1.753,6.15-3.204,10.121-3.83c0.497-0.064,0.999-0.129,1.506-0.195c0.51-0.035,1.024-0.071,1.544-0.107
			c1.043-0.04,2.193-0.047,3.164,0.011c2.167,0.077,4.373,0.409,6.615,1.006c4.493,1.143,8.922,3.657,12.544,7.037
			c3.649,3.374,6.655,7.37,9.652,11.255c1.503,1.943,2.991,3.881,4.604,5.689c1.604,1.812,3.355,3.492,5.365,4.812
			c1.999,1.312,4.246,2.329,6.618,2.776c2.39,0.488,4.856,0.521,7.217,0.125c1.177-0.222,2.326-0.555,3.429-0.986
			c1.103-0.436,2.134-1.02,3.122-1.648c1.966-1.282,3.667-2.895,5.198-4.608c3.076-3.433,5.524-7.255,8.641-10.521
			c1.561-1.621,3.296-3.131,5.331-4.21c1.018-0.529,2.099-0.948,3.208-1.203c0.268-0.067,0.564-0.122,0.865-0.171
			c0.322-0.06,0.503-0.065,0.761-0.101c0.531-0.032,1.058-0.065,1.579-0.097c4.078-0.11,7.874,1.069,10.616,2.905
			c2.789,1.8,4.594,4.062,5.81,5.979c1.215,1.94,1.86,3.604,2.247,4.743c0.37,1.146,0.487,1.782,0.487,1.782L450.334,56.977z"/>
	</g>
	<g>
		<path fill="#82453B" d="M718.502,56.749c3.157-2.423,6.657-4.331,10.275-5.981c1.808-0.834,3.66-1.569,5.54-2.233
			c1.882-0.657,3.778-1.298,5.714-1.795c3.865-1.01,7.804-1.82,11.795-2.236c1.993-0.228,3.996-0.38,6.002-0.472l1.506-0.059
			c0.148-0.003,0.201-0.013,0.428-0.011l0.366,0.003l0.732,0.008l2.931,0.029c1.939,0.001,4.001,0.173,5.997,0.254
			c1.997,0.151,3.977,0.317,5.96,0.536c1.972,0.287,3.958,0.485,5.913,0.877l2.939,0.537l2.914,0.658
			c0.974,0.208,1.937,0.466,2.9,0.714c0.962,0.258,1.934,0.472,2.883,0.778c1.91,0.561,3.804,1.176,5.688,1.815
			c1.88,0.655,3.737,1.373,5.58,2.129c1.852,0.771,3.641,1.558,5.494,2.494l-2.181,0.657c0.763-1.081,1.487-1.86,2.284-2.709
			c0.783-0.826,1.603-1.599,2.433-2.354c1.67-1.502,3.448-2.849,5.254-4.135c3.637-2.545,7.496-4.701,11.461-6.602
			c3.958-1.925,8.071-3.487,12.234-4.893c4.176-1.367,8.418-2.535,12.713-3.505c4.294-0.979,8.644-1.694,13.014-2.288
			c4.373-0.558,8.773-0.932,13.18-1.091c4.387-0.176,8.901-0.101,13.346,0.315c4.462,0.413,8.935,1.149,13.331,2.364
			c4.39,1.219,8.7,2.94,12.728,5.213c4.024,2.277,7.706,5.14,10.986,8.235c3.293,3.083,6.206,6.39,9.188,9.162
			c2.994,2.775,6.115,4.82,9.79,5.456c1.832,0.331,3.768,0.34,5.747,0.159c0.988-0.089,1.987-0.239,2.988-0.429l3.153-0.658
			c1.056-0.227,2.207-0.422,3.303-0.623c1.107-0.172,2.209-0.346,3.328-0.461c2.227-0.262,4.478-0.424,6.745-0.413
			c4.511,0.003,9.186,0.754,13.311,2.693c4.166,1.809,7.396,4.94,11.755,4.978l0.033,0.6c-1.107,0.146-2.258,0.131-3.384-0.057
			c-1.13-0.18-2.214-0.547-3.257-0.939c-2.086-0.802-4.021-1.726-6.02-2.351c-1.99-0.644-4.021-1.036-6.075-1.227
			c-2.06-0.18-4.14-0.113-6.218,0.049c-4.155,0.345-8.317,1.292-12.38,2.392l-3.184,0.891c-1.119,0.292-2.259,0.545-3.427,0.731
			c-2.33,0.39-4.781,0.478-7.256,0.17c-2.467-0.33-4.939-1.096-7.134-2.257c-2.212-1.14-4.15-2.604-5.896-4.11
			c-3.502-3.03-6.394-6.23-9.493-9.046c-3.067-2.843-6.286-5.366-9.801-7.437c-3.491-2.103-7.271-3.745-11.226-4.964
			c-3.95-1.236-8.063-2.081-12.244-2.618c-2.089-0.278-4.199-0.45-6.314-0.615c-1.059-0.053-2.072-0.134-3.172-0.164l-1.63-0.055
			l-1.584-0.028c-2.146-0.049-4.293-0.097-6.437-0.051c-2.149-0.02-4.292,0.069-6.44,0.131c-4.288,0.211-8.58,0.539-12.839,1.148
			c-4.254,0.626-8.485,1.47-12.619,2.669c-4.146,1.158-8.176,2.714-12.058,4.555c-3.884,1.842-7.536,4.148-10.876,6.798
			c-1.682,1.31-3.234,2.773-4.684,4.302c-0.711,0.776-1.424,1.551-2.056,2.376c-0.62,0.799-1.276,1.707-1.692,2.454l-0.691,1.242
			l-1.49-0.585c-1.708-0.671-3.565-1.296-5.384-1.864l-2.761-0.818l-2.78-0.757c-1.859-0.481-3.724-0.938-5.601-1.34
			c-1.874-0.408-3.746-0.828-5.634-1.166c-1.885-0.348-3.772-0.673-5.666-0.964c-1.888-0.325-3.791-0.539-5.687-0.81
			c-1.898-0.221-3.808-0.442-5.704-0.621l-2.833-0.204c-0.941-0.073-1.886-0.144-2.874-0.159l-2.93-0.092l-1.404-0.041l-1.425-0.021
			c-1.899-0.015-3.802,0.027-5.701,0.144c-1.901,0.1-3.795,0.296-5.693,0.484c-1.896,0.206-3.786,0.49-5.669,0.822
			c-1.881,0.34-3.764,0.703-5.63,1.151c-1.865,0.448-3.72,0.955-5.568,1.501c-1.845,0.557-3.671,1.185-5.486,1.855
			c-1.802,0.696-3.62,1.412-5.348,2.279L718.502,56.749z"/>
	</g>
	<g>
		<path fill="#82453B" d="M-1.186,58.594c1.792-4.976,4.249-9.699,7.253-14.108c1.509-2.201,3.225-4.278,5.162-6.169
			c1.938-1.885,4.117-3.587,6.591-4.867c2.461-1.284,5.243-2.114,8.098-2.235c2.716-0.097,5.483,0.065,8.21,0.614
			c2.726,0.556,5.459,1.56,7.862,3.168c2.417,1.591,4.381,3.761,5.995,5.963c1.625,2.2,2.972,4.458,4.535,6.247
			c1.554,1.806,3.332,3.013,5.487,3.52c2.174,0.513,4.541,0.392,7.056-0.01c2.377-0.378,4.773-1.052,6.947-2.059
			c4.423-1.954,8.027-5.41,11.382-9.32c3.396-3.877,6.767-8.116,10.875-11.729c4.075-3.641,8.843-6.566,13.911-8.568
			c5.07-2.019,10.4-3.138,15.71-3.775c5.326-0.625,10.643-0.764,15.969-0.505c2.602,0.082,5.303,0.348,7.949,0.665
			c1.316,0.201,2.636,0.372,3.947,0.595l3.911,0.791c5.186,1.188,10.234,2.942,15.037,5.198c4.783,2.29,9.362,5.036,13.488,8.372
			c4.158,3.293,7.918,7.083,11.227,11.24c3.282,4.196,6.223,8.612,8.348,13.672l-2.182,0.303c0.178-2.429,0.654-4.656,1.312-6.905
			c0.666-2.23,1.528-4.407,2.592-6.491c1.064-2.084,2.332-4.074,3.785-5.928c1.447-1.859,3.117-3.55,4.936-5.053
			c1.808-1.515,3.759-2.873,5.844-3.967c2.056-1.155,4.238-2.039,6.439-2.835c2.223-0.726,4.484-1.323,6.771-1.728
			c1.144-0.202,2.285-0.419,3.437-0.527c1.149-0.136,2.297-0.286,3.45-0.332c2.309-0.179,4.589-0.193,6.914-0.142
			c2.22,0.075,4.547,0.214,6.833,0.463c2.279,0.246,4.556,0.564,6.804,1.065c1.13,0.208,2.24,0.538,3.358,0.804
			c1.104,0.34,2.218,0.631,3.303,1.038c2.186,0.743,4.31,1.69,6.333,2.823c2.024,1.127,3.947,2.455,5.659,4.023
			c1.719,1.556,3.223,3.351,4.433,5.314c1.206,1.966,2.102,4.125,2.414,6.422l-0.396,0.053c-0.539-2.127-1.641-4.106-2.918-5.873
			c-1.306-1.762-2.861-3.327-4.598-4.648c-1.74-1.317-3.616-2.442-5.581-3.387c-1.962-0.955-4.029-1.688-6.128-2.305
			c-1.04-0.336-2.118-0.562-3.176-0.836c-1.081-0.201-2.143-0.467-3.235-0.614l-1.628-0.255l-1.639-0.198
			c-1.089-0.153-2.19-0.23-3.289-0.322c-2.191-0.169-4.36-0.235-6.636-0.242c-2.17,0.031-4.392,0.048-6.566,0.251
			c-1.096,0.056-2.177,0.213-3.259,0.354c-1.088,0.114-2.154,0.333-3.223,0.535c-2.14,0.397-4.222,1.003-6.275,1.666
			c-2.027,0.724-4.034,1.521-5.907,2.562c-1.896,0.999-3.686,2.18-5.362,3.502c-1.691,1.309-3.215,2.821-4.612,4.443
			c-1.401,1.62-2.65,3.381-3.724,5.254c-1.074,1.871-1.972,3.853-2.694,5.899c-0.71,2.03-1.271,4.208-1.527,6.258l-0.598,4.804
			l-1.583-4.501c-0.821-2.336-1.979-4.714-3.221-6.963c-1.256-2.262-2.649-4.459-4.209-6.534c-1.559-2.074-3.208-4.092-5.022-5.957
			c-1.829-1.846-3.717-3.644-5.762-5.254c-0.993-0.842-2.071-1.575-3.116-2.349c-1.095-0.702-2.142-1.48-3.276-2.12l-1.675-1
			c-0.563-0.324-1.146-0.615-1.718-0.924c-1.138-0.631-2.329-1.157-3.511-1.696c-4.742-2.139-9.756-3.635-14.855-4.588l-3.842-0.618
			c-1.286-0.165-2.579-0.282-3.867-0.423c-2.581-0.187-5.122-0.327-7.775-0.29c-2.573-0.04-5.192,0.12-7.771,0.299
			c-2.584,0.187-5.159,0.44-7.706,0.828c-5.097,0.756-10.077,2.062-14.753,3.988c-4.67,1.951-8.941,4.683-12.644,8.111
			c-3.74,3.406-6.871,7.486-10.316,11.568c-1.747,2.021-3.604,4.038-5.726,5.857c-2.113,1.819-4.51,3.413-7.104,4.586
			c-2.614,1.165-5.336,1.882-8.149,2.286c-2.658,0.376-5.648,0.564-8.601-0.183c-1.473-0.381-2.934-1.004-4.21-1.879
			c-1.282-0.865-2.366-1.94-3.279-3.05c-1.831-2.232-3.113-4.557-4.565-6.611c-1.431-2.065-3.029-3.869-4.964-5.249
			c-1.923-1.389-4.179-2.326-6.574-2.905c-2.408-0.583-4.917-0.794-7.449-0.838c-2.404-0.026-4.817,0.542-7.068,1.566
			c-4.539,2.057-8.317,5.746-11.548,9.751c-3.233,4.045-5.94,8.564-8.18,13.287L-1.186,58.594z"/>
	</g>
	<g>
		<path fill="#82453B" d="M293.098,47.666c0,0-0.198-0.543-0.333-1.549c-0.126-1-0.22-2.484,0.217-4.261
			c0.107-0.442,0.281-0.893,0.435-1.372c0.226-0.45,0.439-0.936,0.743-1.39c0.33-0.436,0.616-0.941,1.057-1.331
			c0.206-0.208,0.418-0.419,0.639-0.624c0.227-0.196,0.489-0.348,0.739-0.525c0.257-0.164,0.506-0.359,0.781-0.498
			c0.282-0.123,0.565-0.247,0.85-0.372c0.569-0.285,1.169-0.422,1.778-0.558c0.303-0.064,0.61-0.159,0.916-0.194l0.918-0.077
			l0.924-0.064l0.116-0.008l0.058-0.004l0.119,0.002l0.21,0.007l0.42,0.015l1.679,0.087c0.609,0.078,1.213,0.179,1.811,0.273
			c0.607,0.069,1.157,0.278,1.723,0.421c0.564,0.135,1.105,0.351,1.63,0.576c0.262,0.11,0.522,0.219,0.78,0.327
			c0.249,0.133,0.493,0.269,0.731,0.408c0.238,0.138,0.473,0.273,0.706,0.408c0.219,0.159,0.435,0.316,0.647,0.471
			c0.21,0.155,0.417,0.309,0.622,0.46c0.188,0.173,0.378,0.338,0.553,0.512c0.365,0.33,0.675,0.692,0.96,1.046
			c0.59,0.688,1.004,1.415,1.321,2.063c0.325,0.647,0.509,1.252,0.642,1.743c0.253,0.994,0.22,1.577,0.22,1.577
			s-0.062-0.131-0.182-0.366c-0.121-0.235-0.326-0.565-0.584-0.971c-0.271-0.4-0.625-0.863-1.056-1.354
			c-0.441-0.483-0.962-0.995-1.58-1.477c-0.306-0.245-0.627-0.489-0.996-0.695c-0.18-0.107-0.353-0.228-0.531-0.345
			c-0.191-0.098-0.386-0.198-0.583-0.3c-0.195-0.101-0.393-0.202-0.593-0.305c-0.212-0.081-0.428-0.162-0.645-0.244
			c-0.217-0.081-0.434-0.167-0.649-0.258c-0.228-0.066-0.458-0.132-0.69-0.199c-0.905-0.301-1.923-0.464-2.904-0.625
			c-0.495-0.055-0.993-0.104-1.49-0.176l-1.675-0.062l-0.419-0.021l-0.209-0.011l-0.026-0.001l-0.013,0
			c-0.063-0.002,0.072,0.001,0.054,0.001l-0.047,0.003l-0.094,0.006l-0.75,0.044l-0.749,0.032c-0.248,0.014-0.475,0.083-0.713,0.121
			c-0.472,0.087-0.951,0.149-1.368,0.328l-0.65,0.216c-0.208,0.084-0.392,0.203-0.59,0.3c-0.19,0.107-0.4,0.188-0.577,0.311
			c-0.167,0.134-0.34,0.26-0.515,0.384c-0.375,0.222-0.626,0.57-0.935,0.852c-0.292,0.3-0.493,0.666-0.759,0.976
			c-0.199,0.354-0.426,0.687-0.597,1.036c-0.684,1.402-1.035,2.747-1.237,3.698C293.16,47.092,293.098,47.666,293.098,47.666z"/>
	</g>
</g>
<g id="REsalto">
	<path fill="#6D3B32" d="M229.244,212.265c-10.871-2.018-19.02,9.969-30.737,9.204c-14.358-0.937-24.759-18.943-42.579-22.249
		c-21.148-3.925-38.368,7.323-54.479,9.516c-5.509,0.75-10.753-3.401-16.526-4.472c-41.144-7.635-78.875,9.771-84.276,38.875
		c-5.4,29.103,23.575,58.886,64.72,66.519c32.667,6.062,55.422-13.579,77.055-22.501c12.393-5.111,26.837-8.09,36.734-2.564
		c15.385,8.589,15.364,30.253,30.532,33.066c22.569,4.188,45.243-16.01,50.643-45.115
		C265.731,243.442,251.814,216.451,229.244,212.265z"/>
	<path fill="#6D3B32" d="M598.332,214.998c-24.202,0-37.069,29.812-55.625,26.441c-22.063-4.007-29.854-38.441-59.708-38.441
		c-17.462,0-29.958,14.068-44.26,14.767c-9.21,0.449-16.71-8.1-26.407-8.1c-27.614,0-50,24.028-50,53.667
		c0,29.64,22.386,53.667,50,53.667c18.142,0,25.979-19.97,42.789-25.89c8.479-2.985,17.824,5.223,27.878,5.223
		c23.12,0,35.966-28.223,53.454-24.587c23.358,4.856,30.642,41.254,61.879,41.254c34.61,0,62.667-21.938,62.667-49
		S632.942,214.998,598.332,214.998z"/>
	<path fill="#6D3B32" d="M1141,216.332c-2.166,0-4.393,1.084-6.397,0.408c-15.212-5.13-29.132-18.408-48.938-18.408
		c-17.338,0-98.667,38.634-98.667,70.666s19.551,58,43.668,58c17.152,0,26.999-13.334,39.129-32.255
		c2.792-4.355,18.21,5.06,19.203,6.254c13.975,16.816,29.098,31.335,52.002,31.335c30.19,0,54.665-25.968,54.665-58
		S1171.19,216.332,1141,216.332z"/>
	<path fill="#6D3B32" d="M959.454,273.338c1.544-57.674-65.122-82.34-93.122-82.34c-24.691,0-37.085,27.903-56.251,27.396
		c-10.245-0.271-12.875-14.73-21.749-14.73c-8.594,0-11.54,12.394-21.268,13.893c-9.247,1.425-15.361-9.893-24.398-9.893
		c-24.117,0-43.668,25.968-43.668,58s19.551,58,43.668,58c20.9,0,39.662-39.328,48.664-42.331s12.999,16.769,15.668,24.33
		c4,11.333,15.826-16.139,30.667,2c12,14.667,26.872-18.666,28.667-18.666c13.34,0,25.646-14.287,35.857-8.824
		c21.757,11.639,14.801,43.44,29.605,43.101C947.695,322.911,958.726,300.55,959.454,273.338z"/>
	<path fill="#6D3B32" d="M1271.709,257.105c4.626,26.826-4.33,50.765-20.004,53.466c-15.669,2.702-32.124-16.854-36.749-43.68
		c-4.625-26.827,4.332-50.766,20.002-53.466C1250.629,210.723,1267.084,230.279,1271.709,257.105z"/>
	<path fill="#6D3B32" d="M1049.756,153.735c10.871,2.018,19.02-9.969,30.736-9.204c14.358,0.937,24.76,18.943,42.58,22.249
		c21.148,3.925,38.367-7.323,54.479-9.516c5.509-0.749,10.754,3.401,16.525,4.472c41.145,7.635,78.875-9.771,84.276-38.875
		c5.399-29.103-23.575-58.886-64.72-66.519c-32.667-6.062-55.422,13.579-77.055,22.501c-12.393,5.111-26.838,8.09-36.734,2.564
		c-15.385-8.589-15.363-30.253-30.531-33.066c-22.57-4.188-45.244,16.01-50.644,45.115
		C1013.269,122.558,1027.186,149.549,1049.756,153.735z"/>
	<path fill="#6D3B32" d="M680.668,151.002c24.202,0,37.069-29.812,55.625-26.441c22.063,4.007,29.854,38.441,59.708,38.441
		c17.462,0,29.958-14.068,44.26-14.767c9.21-0.449,16.71,8.101,26.407,8.101c27.614,0,50-24.028,50-53.667
		c0-29.64-22.386-53.667-50-53.667c-18.142,0-25.979,19.97-42.789,25.89c-8.479,2.985-17.824-5.223-27.878-5.223
		c-23.12,0-35.966,28.223-53.454,24.587c-23.357-4.856-30.642-41.254-61.879-41.254c-34.61,0-62.667,21.938-62.667,49
		S646.058,151.002,680.668,151.002z"/>
	<path fill="#6D3B32" d="M138,149.668c2.166,0,4.393-1.084,6.397-0.408c15.212,5.13,29.132,18.408,48.938,18.408
		c17.338,0,98.667-38.634,98.667-70.666s-19.551-58-43.668-58c-17.152,0-26.999,13.334-39.129,32.255
		c-2.792,4.355-18.21-5.06-19.203-6.254C176.027,48.187,160.904,33.668,138,33.668c-30.19,0-54.665,25.968-54.665,58
		S107.81,149.668,138,149.668z"/>
	<path fill="#6D3B32" d="M319.546,92.662c-1.544,57.674,65.122,82.34,93.122,82.34c24.691,0,37.085-27.903,56.251-27.396
		c10.245,0.271,12.875,14.73,21.749,14.73c8.594,0,11.54-12.395,21.268-13.894c9.247-1.425,15.361,9.893,24.398,9.893
		c24.117,0,43.668-25.968,43.668-58s-19.551-58-43.668-58c-20.9,0-39.662,39.328-48.664,42.331s-12.999-16.769-15.668-24.33
		c-4-11.333-15.826,16.139-30.667-2c-12-14.667-26.872,18.666-28.667,18.666c-13.34,0-25.646,14.287-35.857,8.824
		c-21.757-11.639-14.801-43.44-29.605-43.101C331.305,43.089,320.274,65.45,319.546,92.662z"/>
	<path fill="#6D3B32" d="M7.291,108.895c-4.626-26.826,4.33-50.765,20.004-53.466c15.669-2.702,32.124,16.854,36.749,43.68
		c4.625,26.827-4.332,50.766-20.002,53.466C28.371,155.277,11.916,135.721,7.291,108.895z"/>
</g>
<g id="Chispas">
	
		<ellipse transform="matrix(0.9537 0.3006 -0.3006 0.9537 79.3752 0.333)" fill="#EFE9CA" cx="38.605" cy="258.081" rx="1.329" ry="2.54"/>
	
		<ellipse transform="matrix(0.9537 0.3006 -0.3006 0.9537 88.8434 -140.3615)" fill="#EFE9CA" cx="500.5" cy="218.499" rx="1.329" ry="2.54"/>
	
		<ellipse transform="matrix(0.9537 0.3006 -0.3006 0.9537 97.9994 -77.8627)" fill="#EFE9CA" cx="302" cy="279.499" rx="1.329" ry="2.54"/>
	
		<ellipse transform="matrix(0.9538 0.3005 -0.3005 0.9538 97.1711 -194.7126)" fill="#EFE9CA" cx="681.5" cy="218.499" rx="1.329" ry="2.54"/>
	
		<ellipse transform="matrix(0.9538 0.3005 -0.3005 0.9538 118.5093 -177.4325)" fill="#EFE9CA" cx="636" cy="296.499" rx="1.329" ry="2.54"/>
	
		<ellipse transform="matrix(0.9538 0.3005 -0.3005 0.9538 105.6074 -271.5567)" fill="#EFE9CA" cx="935.5" cy="207.499" rx="1.329" ry="2.54"/>
	
		<ellipse transform="matrix(0.9538 0.3005 -0.3005 0.9538 140.3174 -334.2069)" fill="#EFE9CA" cx="1156.5" cy="288.999" rx="1.329" ry="2.54"/>
	
		<ellipse transform="matrix(0.9538 0.3005 -0.3005 0.9538 124.8925 -303.1287)" fill="#EFE9CA" cx="1047.768" cy="254.399" rx="1.329" ry="2.54"/>
	
		<ellipse transform="matrix(0.9538 0.3005 -0.3005 0.9538 120.6327 -370.0798)" fill="#EFE9CA" cx="1263.263" cy="207.077" rx="1.329" ry="2.54"/>
	
		<ellipse transform="matrix(0.8367 -0.5476 0.5476 0.8367 -87.9431 161.7245)" fill="#EFE9CA" cx="227.23" cy="228.337" rx="1.328" ry="2.539"/>
	
		<ellipse transform="matrix(0.8367 -0.5477 0.5477 0.8367 -8.362 459.9601)" fill="#EFE9CA" cx="767" cy="244" rx="1.328" ry="2.539"/>
	
		<ellipse transform="matrix(0.8367 -0.5477 0.5477 0.8367 -87.1955 275.6118)" fill="#EFE9CA" cx="418.5" cy="284" rx="1.328" ry="2.539"/>
	
		<ellipse transform="matrix(0.8367 -0.5477 0.5477 0.8367 -17.7236 359.5685)" fill="#EFE9CA" cx="594" cy="209.5" rx="1.328" ry="2.539"/>
	
		<ellipse transform="matrix(0.8367 -0.5477 0.5477 0.8367 -2.7548 583.3077)" fill="#EFE9CA" cx="976.611" cy="296.272" rx="1.328" ry="2.539"/>
	
		<ellipse transform="matrix(0.8367 -0.5477 0.5477 0.8367 64.0337 630.7211)" fill="#EFE9CA" cx="1089.5" cy="208" rx="1.328" ry="2.539"/>
	
		<ellipse transform="matrix(0.8367 -0.5477 0.5477 0.8367 37.9852 741.3744)" fill="#EFE9CA" cx="1262" cy="307" rx="1.328" ry="2.539"/>
</g>
<g id="Dupla">
	
		<ellipse transform="matrix(-0.9538 -0.3005 0.3005 -0.9538 2391.0139 583.6291)" fill="#EFE9CA" cx="1240.395" cy="107.919" rx="1.329" ry="2.54"/>
	
		<ellipse transform="matrix(-0.9538 -0.3005 0.3005 -0.9538 1476.6819 522.1486)" fill="#EFE9CA" cx="778.5" cy="147.501" rx="1.329" ry="2.54"/>
	
		<ellipse transform="matrix(-0.9538 -0.3005 0.3005 -0.9538 1882.838 462.6244)" fill="#EFE9CA" cx="977" cy="86.501" rx="1.329" ry="2.54"/>
	
		<ellipse transform="matrix(-0.9538 -0.3005 0.3005 -0.9538 1123.0493 467.752)" fill="#EFE9CA" cx="597.5" cy="147.501" rx="1.329" ry="2.54"/>
	
		<ellipse transform="matrix(-0.9538 -0.3005 0.3005 -0.9538 1235.3875 329.0321)" fill="#EFE9CA" cx="643" cy="69.501" rx="1.329" ry="2.54"/>
	
		<ellipse transform="matrix(-0.9538 -0.3005 0.3005 -0.9538 623.4856 412.9079)" fill="#EFE9CA" cx="343.5" cy="158.501" rx="1.329" ry="2.54"/>
	
		<ellipse transform="matrix(-0.9538 -0.3005 0.3005 -0.9538 216.1956 187.2576)" fill="#EFE9CA" cx="122.5" cy="77.001" rx="1.329" ry="2.54"/>
	
		<ellipse transform="matrix(-0.9538 -0.3005 0.3005 -0.9538 418.2355 287.5351)" fill="#EFE9CA" cx="231.232" cy="111.601" rx="1.329" ry="2.54"/>
	
		<ellipse transform="matrix(-0.9538 -0.3005 0.3005 -0.9538 -17.0146 315.2285)" fill="#EFE9CA" cx="15.737" cy="158.923" rx="1.329" ry="2.54"/>
	
		<ellipse transform="matrix(-0.8368 0.5476 -0.5476 -0.8368 2007.2367 -323.048)" fill="#EFE9CA" cx="1051.77" cy="137.663" rx="1.329" ry="2.539"/>
	
		<ellipse transform="matrix(-0.8367 0.5477 -0.5477 -0.8367 1007.1917 -56.3626)" fill="#EFE9CA" cx="512" cy="122" rx="1.328" ry="2.539"/>
	
		<ellipse transform="matrix(-0.8367 0.5477 -0.5477 -0.8367 1625.3582 -320.711)" fill="#EFE9CA" cx="860.5" cy="82" rx="1.328" ry="2.539"/>
	
		<ellipse transform="matrix(-0.8367 0.5477 -0.5477 -0.8367 1343.8301 -87.7543)" fill="#EFE9CA" cx="685" cy="156.5" rx="1.328" ry="2.539"/>
	
		<ellipse transform="matrix(-0.8367 0.5477 -0.5477 -0.8367 593.5763 -37.56)" fill="#EFE9CA" cx="302.389" cy="69.728" rx="1.328" ry="2.539"/>
	
		<ellipse transform="matrix(-0.8367 0.5477 -0.5477 -0.8367 434.5873 186.3983)" fill="#EFE9CA" cx="189.5" cy="158" rx="1.328" ry="2.539"/>
	
		<ellipse transform="matrix(-0.8367 0.5477 -0.5477 -0.8367 63.5389 99.0515)" fill="#EFE9CA" cx="17" cy="59" rx="1.328" ry="2.539"/>
</g>
</svg>
